<?xml version="1.0" encoding="UTF-8"?>
<svg id="Public_AI_CH_Logo" data-name="Public AI CH Logo" xmlns="http://www.w3.org/2000/svg" viewBox="0 0 4046.24 440">
  <defs>
    <style>
      .cls-1 {
        fill: #fff;
      }

      .cls-2 {
        fill: #ef3c24;
      }
    </style>
  </defs>
  <g>
    <rect class="cls-2" width="479.13" height="440"/>
    <path class="cls-1" d="M111.79,282.79v-47.16l198.63-56.03-198.63-56.84v-46.76l255.54,78.2v50.79l-255.54,77.8ZM111.79,348v-42.33h255.54v42.33H111.79Z"/>
  </g>
  <g>
    <path class="cls-2" d="M617.33,343V82.72h90.18c18.6,0,35.25,3.18,49.95,9.54,14.7,6.36,26.28,15.72,34.74,28.08,8.46,12.36,12.69,27.54,12.69,45.54s-3.87,32.01-11.61,44.19c-7.74,12.18-18.54,21.51-32.4,27.99-13.86,6.48-29.91,9.72-48.15,9.72h-56.16v95.22h-39.24ZM656.39,216.1h55.26c16.56,0,30.06-4.77,40.5-14.31,10.44-9.54,15.66-22.23,15.66-38.07s-5.4-28.41-16.2-36.99c-10.8-8.58-24.6-12.87-41.4-12.87h-53.82v102.24Z"/>
    <path class="cls-2" d="M903.24,346.6c-9.36-.12-18.3-1.5-26.82-4.14-8.52-2.64-16.11-6.6-22.77-11.88-6.66-5.28-11.94-11.82-15.84-19.62-3.9-7.8-5.85-16.8-5.85-27v-127.08h38.7v122.76c0,11.16,3.48,20.22,10.44,27.18,6.96,6.96,17.46,10.44,31.5,10.44,12.72,0,22.92-3.33,30.6-9.99,7.68-6.66,11.52-16.41,11.52-29.25v-121.14h38.34v186.12h-29.88l-4.32-36c-2.16,9.72-6.03,17.49-11.61,23.31-5.58,5.82-12.18,10.02-19.8,12.6-7.62,2.58-15.69,3.81-24.21,3.69Z"/>
    <path class="cls-2" d="M1131.87,346.6c-10.44,0-19.32-1.38-26.64-4.14-7.32-2.76-13.35-6.3-18.09-10.62-4.74-4.32-8.46-8.88-11.16-13.68-2.7-4.8-4.77-9.24-6.21-13.32l-4.14,38.16h-28.98V75.52h38.88v109.62c1.68-3.24,4.17-6.72,7.47-10.44,3.3-3.72,7.44-7.2,12.42-10.44,4.98-3.24,10.77-5.88,17.37-7.92,6.6-2.04,14.04-3.06,22.32-3.06,23.16,0,41.55,8.16,55.17,24.48,13.62,16.32,20.43,40.08,20.43,71.28,0,19.68-2.94,36.81-8.82,51.39-5.88,14.58-14.67,25.92-26.37,34.02-11.7,8.1-26.25,12.15-43.65,12.15ZM1124.31,317.62c14.16,0,25.71-5.52,34.65-16.56,8.94-11.04,13.41-28.8,13.41-53.28,0-21.12-4.17-37.26-12.51-48.42-8.34-11.16-20.37-16.74-36.09-16.74-11.28,0-20.46,2.49-27.54,7.47-7.08,4.98-12.27,12.33-15.57,22.05-3.3,9.72-5.01,21.6-5.13,35.64,0,24.84,3.84,42.69,11.52,53.55,7.68,10.86,20.1,16.29,37.26,16.29Z"/>
    <path class="cls-2" d="M1295.85,345.52c-11.04,0-19.89-1.44-26.55-4.32-6.66-2.88-11.73-6.75-15.21-11.61-3.48-4.86-5.79-10.38-6.93-16.56-1.14-6.18-1.71-12.57-1.71-19.17V75.52h37.98v214.38c0,8.64,1.71,15.24,5.13,19.8,3.42,4.56,8.67,7.14,15.75,7.74l9.72.36v24.48c-3,.96-6.09,1.74-9.27,2.34-3.18.6-6.15.9-8.91.9Z"/>
    <path class="cls-2" d="M1343.37,120.88v-37.98h38.7v37.98h-38.7ZM1344.27,343v-186.12h37.08v186.12h-37.08Z"/>
    <path class="cls-2" d="M1502.62,346.6c-16.8,0-31.74-3.69-44.82-11.07-13.08-7.38-23.34-18.24-30.78-32.58-7.44-14.34-11.16-31.77-11.16-52.29,0-19.32,3.45-36.3,10.35-50.94,6.9-14.64,16.83-26.04,29.79-34.2,12.96-8.16,28.5-12.24,46.62-12.24,14.04,0,26.46,2.73,37.26,8.19,10.8,5.46,19.59,13.05,26.37,22.77,6.78,9.72,10.89,21.06,12.33,34.02h-33.48c-.96-6.12-3.24-11.82-6.84-17.1-3.6-5.28-8.34-9.51-14.22-12.69-5.88-3.18-12.9-4.77-21.06-4.77-15,0-27.18,5.46-36.54,16.38-9.36,10.92-14.04,27.66-14.04,50.22,0,20.64,4.38,37.08,13.14,49.32,8.76,12.24,21.42,18.36,37.98,18.36,8.16,0,15.18-1.68,21.06-5.04,5.88-3.36,10.59-7.68,14.13-12.96,3.54-5.28,5.79-10.74,6.75-16.38h32.76c-1.44,12.48-5.55,23.46-12.33,32.94-6.78,9.48-15.57,16.86-26.37,22.14-10.8,5.28-23.1,7.92-36.9,7.92Z"/>
    <path class="cls-2" d="M1695.22,343l93.96-260.28h42.48l93.78,260.28h-38.88l-24.48-68.22h-103.14l-24.66,68.22h-39.06ZM1768.48,239.86h83.52l-41.76-119.7-41.76,119.7Z"/>
    <path class="cls-2" d="M1959.78,343V82.72h38.52v260.28h-38.52Z"/>
    <path class="cls-2" d="M2240.58,346.6c-12.72,0-24.93-1.56-36.63-4.68s-22.32-7.77-31.86-13.95c-9.54-6.18-17.4-13.89-23.58-23.13-6.18-9.24-10.05-20.04-11.61-32.4h40.14c2.04,9.36,6.09,17.22,12.15,23.58,6.06,6.36,13.68,11.16,22.86,14.4,9.18,3.24,19.35,4.86,30.51,4.86,10.32,0,19.86-1.62,28.62-4.86,8.76-3.24,15.84-7.92,21.24-14.04s8.1-13.62,8.1-22.5c0-9.96-3.33-17.85-9.99-23.67-6.66-5.82-16.65-10.47-29.97-13.95l-52.2-12.96c-12.6-3-23.7-7.29-33.3-12.87-9.6-5.58-17.04-12.96-22.32-22.14-5.28-9.18-7.92-20.55-7.92-34.11,0-15.12,4.17-28.29,12.51-39.51,8.34-11.22,19.68-19.89,34.02-26.01,14.34-6.12,30.57-9.18,48.69-9.18,20.76,0,38.25,3.54,52.47,10.62,14.22,7.08,25.02,16.41,32.4,27.99,7.38,11.58,11.13,24.21,11.25,37.89h-39.24c-1.08-11.16-4.35-20.01-9.81-26.55-5.46-6.54-12.36-11.25-20.7-14.13-8.34-2.88-17.55-4.32-27.63-4.32-17.76,0-31.11,3.93-40.05,11.79-8.94,7.86-13.41,17.19-13.41,27.99,0,9.96,3.27,17.82,9.81,23.58,6.54,5.76,16.23,10.2,29.07,13.32l50.4,12.42c15.84,3.48,28.53,8.67,38.07,15.57,9.54,6.9,16.41,15,20.61,24.3,4.2,9.3,6.3,19.47,6.3,30.51,0,14.76-4.14,27.87-12.42,39.33-8.28,11.46-19.83,20.46-34.65,27-14.82,6.54-32.13,9.81-51.93,9.81Z"/>
    <path class="cls-2" d="M2420.86,343l-58.32-186.12h35.1l40.68,135.54h2.52l39.78-135.54h28.62l41.04,135.18h2.52l39.24-135.18h35.64l-57.78,186.12h-35.28l-40.32-130.68-38.7,130.68h-34.74Z"/>
    <path class="cls-2" d="M2653.13,120.88v-37.98h38.7v37.98h-38.7ZM2654.03,343v-186.12h37.08v186.12h-37.08Z"/>
    <path class="cls-2" d="M2803.07,344.26c-13.8,0-24.48-1.86-32.04-5.58-7.56-3.72-12.84-9.09-15.84-16.11-3-7.02-4.5-15.51-4.5-25.47v-112.5h-30.24v-27.72h31.5l9.36-54.72h28.08v54.54h41.76v27.9h-41.76l.18,111.06c0,6.12.63,10.59,1.89,13.41,1.26,2.82,3.42,4.62,6.48,5.4,3.06.78,7.23,1.17,12.51,1.17h21.6v25.02c-2.28.96-5.79,1.8-10.53,2.52-4.74.72-10.89,1.08-18.45,1.08Z"/>
    <path class="cls-2" d="M2855.7,343v-23.04l101.52-135.18h-96.84v-27.9h143.1v23.04l-101.52,135.18h102.24v27.9h-148.5Z"/>
    <path class="cls-2" d="M3108.99,346.6c-17.64,0-33.18-3.81-46.62-11.43-13.44-7.62-23.91-18.51-31.41-32.67-7.5-14.16-11.25-31.02-11.25-50.58s3.42-36.39,10.26-51.21c6.84-14.82,16.74-26.43,29.7-34.83,12.96-8.4,28.56-12.6,46.8-12.6s33,3.84,45.36,11.52c12.36,7.68,21.72,18.45,28.08,32.31,6.36,13.86,9.54,30.21,9.54,49.05v12.78h-131.04c-.12,11.16,1.68,21.15,5.4,29.97,3.72,8.82,9.27,15.78,16.65,20.88,7.38,5.1,16.59,7.65,27.63,7.65s20.79-2.52,28.89-7.56c8.1-5.04,13.35-12.54,15.75-22.5h35.82c-2.16,12.72-7.26,23.52-15.3,32.4-8.04,8.88-17.7,15.57-28.98,20.07-11.28,4.5-23.04,6.75-35.28,6.75ZM3058.41,233.92h94.32c0-9.72-1.68-18.54-5.04-26.46-3.36-7.92-8.49-14.22-15.39-18.9-6.9-4.68-15.57-7.02-26.01-7.02s-19.56,2.58-26.64,7.74c-7.08,5.16-12.39,11.76-15.93,19.8-3.54,8.04-5.31,16.32-5.31,24.84Z"/>
    <path class="cls-2" d="M3225.05,343v-186.12h36.9v38.16c3.12-9.12,7.47-16.77,13.05-22.95,5.58-6.18,12.09-10.86,19.53-14.04,7.44-3.18,15.3-4.77,23.58-4.77,2.52,0,4.92.15,7.2.45,2.28.3,4.08.81,5.4,1.53v37.08c-1.56-.72-3.57-1.2-6.03-1.44-2.46-.24-4.59-.42-6.39-.54-8.16-.6-15.6-.18-22.32,1.26-6.72,1.44-12.51,3.84-17.37,7.2-4.86,3.36-8.58,7.74-11.16,13.14-2.58,5.4-3.87,11.76-3.87,19.08v111.96h-38.52Z"/>
    <path class="cls-2" d="M3408.54,345.52c-11.04,0-19.89-1.44-26.55-4.32s-11.73-6.75-15.21-11.61c-3.48-4.86-5.79-10.38-6.93-16.56-1.14-6.18-1.71-12.57-1.71-19.17V75.52h37.98v214.38c0,8.64,1.71,15.24,5.13,19.8,3.42,4.56,8.67,7.14,15.75,7.74l9.72.36v24.48c-3,.96-6.09,1.74-9.27,2.34-3.18.6-6.15.9-8.91.9Z"/>
    <path class="cls-2" d="M3512.91,346.6c-12,0-22.65-2.16-31.95-6.48-9.3-4.32-16.59-10.56-21.87-18.72-5.28-8.16-7.92-18-7.92-29.52,0-20.64,7.29-36.06,21.87-46.26,14.58-10.2,37.95-15.6,70.11-16.2l30.6-.9v-13.5c0-10.68-3.18-19.08-9.54-25.2-6.36-6.12-16.2-9.12-29.52-9-9.84,0-18.66,2.28-26.46,6.84-7.8,4.56-12.9,12.06-15.3,22.5h-33.3c.72-12.36,4.29-22.77,10.71-31.23,6.42-8.46,15.27-14.85,26.55-19.17,11.28-4.32,24.48-6.48,39.6-6.48,17.04,0,31.02,2.31,41.94,6.93,10.92,4.62,19.05,11.37,24.39,20.25,5.34,8.88,8.01,19.68,8.01,32.4v130.14h-32.76l-2.88-34.2c-6.96,14.28-15.78,24.15-26.46,29.61-10.68,5.46-22.62,8.19-35.82,8.19ZM3524.96,319.78c5.88,0,11.7-1.05,17.46-3.15,5.76-2.1,10.98-4.98,15.66-8.64,4.68-3.66,8.43-7.77,11.25-12.33,2.82-4.56,4.29-9.24,4.41-14.04v-30.6l-25.38.36c-12.72.12-23.55,1.44-32.49,3.96-8.94,2.52-15.78,6.42-20.52,11.7-4.74,5.28-7.11,12.3-7.11,21.06,0,9.96,3.45,17.73,10.35,23.31,6.9,5.58,15.69,8.37,26.37,8.37Z"/>
    <path class="cls-2" d="M3652.94,343v-186.12h37.62v26.82c3-5.04,7.05-9.78,12.15-14.22,5.1-4.44,11.4-8.04,18.9-10.8,7.5-2.76,16.17-4.14,26.01-4.14,11.64,0,22.41,2.31,32.31,6.93,9.9,4.62,17.85,11.82,23.85,21.6,6,9.78,9,22.41,9,37.89v122.04h-38.52v-117.9c0-13.32-3.6-23.22-10.8-29.7s-16.38-9.72-27.54-9.72c-7.56,0-14.76,1.26-21.6,3.78-6.84,2.52-12.36,6.33-16.56,11.43-4.2,5.1-6.3,11.49-6.3,19.17v122.94h-38.52Z"/>
    <path class="cls-2" d="M3924.92,346.6c-24.36,0-43.59-8.37-57.69-25.11-14.1-16.74-21.15-40.89-21.15-72.45,0-19.32,2.85-36.15,8.55-50.49,5.7-14.34,14.13-25.47,25.29-33.39s25.08-11.88,41.76-11.88c8.28,0,15.72,1.02,22.32,3.06,6.6,2.04,12.36,4.68,17.28,7.92,4.92,3.24,9.06,6.72,12.42,10.44,3.36,3.72,5.88,7.2,7.56,10.44v-109.62h38.88v267.48h-28.98l-4.32-38.16c-1.32,4.08-3.33,8.52-6.03,13.32-2.7,4.8-6.45,9.36-11.25,13.68-4.8,4.32-10.83,7.86-18.09,10.62-7.26,2.76-16.11,4.14-26.55,4.14ZM3932.3,317.62c17.28,0,29.76-5.43,37.44-16.29,7.68-10.86,11.52-28.71,11.52-53.55-.12-14.04-1.83-25.92-5.13-35.64-3.3-9.72-8.46-17.07-15.48-22.05-7.02-4.98-16.23-7.47-27.63-7.47-14.28,0-25.95,5.13-35.01,15.39-9.06,10.26-13.59,26.85-13.59,49.77s4.11,39.84,12.33,51.84c8.22,12,20.07,18,35.55,18Z"/>
  </g>
</svg>